<svg xmlns="http://www.w3.org/2000/svg" xml:space="preserve" viewBox="0 0 107.1 122.9">
  <path d="M31.5 87a3.2 3.2 0 0 1-3.1-3.2c0-1.8 1.4-3.2 3.1-3.2H52c1.8 0 3.2 1.4 3.2 3.2 0 1.7-1.4 3.2-3.2 3.2H31.5zm0-44.7a3.1 3.1 0 1 1 0-6.3h41.6a3.1 3.1 0 1 1 0 6.3H31.6zM57 116.6a3.1 3.1 0 1 1 0 6.3H7.3a7.3 7.3 0 0 1-7.3-7.4V7.3A7.3 7.3 0 0 1 7.3 0h90a7.3 7.3 0 0 1 7.4 7.3v65.3a3.1 3.1 0 1 1-6.3 0V7.3a1 1 0 0 0-1-1h-90a1 1 0 0 0-.8.3 1 1 0 0 0-.3.7v108.2c0 .3.1.6.3.8.2.2.5.3.7.3H57zm26.4-32.9a3.1 3.1 0 0 1 6.3 0v14.4H104a3.1 3.1 0 0 1 0 6.3H89.6v14.3a3.1 3.1 0 0 1-6.3 0v-14.4H69a3.1 3.1 0 0 1 0-6.3h14.3V83.8zM31.5 64.6a3.1 3.1 0 1 1 0-6.3h41.6a3.1 3.1 0 1 1 0 6.3H31.6z"/>
</svg>