<svg xmlns="http://www.w3.org/2000/svg" xml:space="preserve" id="Layer_1" x="0" y="0" version="1.1" viewBox="0 0 55.2 38.4">
  <path fill="#fefefe" d="M2.9 38.4h49.4a3 3 0 0 0 2.9-3V3a3 3 0 0 0-3-3H3a3 3 0 0 0-3 3v32.4a3 3 0 0 0 2.9 3z"/>
  <path fill="#c8102e" d="M23.7 23v15.4h7.7V23h23.8v-7.7H31.4V0h-7.7v15.3H0V23h23.7z" />
  <path fill="#012169" d="M34 12.4V0h18.2A3 3 0 0 1 55 2L34 12.3zM34 26v12.4h18.3a3 3 0 0 0 2.7-2L34 26zm-12.8 0v12.4H2.9a3 3 0 0 1-2.7-2l21-10.4zm0-13.6V0H3A3 3 0 0 0 .2 2l21 10.4zM0 12.8h7.7L0 9v3.8zm55.2 0h-7.7l7.7-3.9v3.9zm0 12.8h-7.7l7.7 3.8v-3.8zM0 25.6h7.7L0 29.4v-3.8z"/>
  <path fill="#c8102e" d="m55.2 3.3-19.1 9.5h4.3l14.8-7.4V3.3zM19 25.6h-4.2L0 33v2.1l19.1-9.5H19zm-8.5-12.8h4.3L0 5.4v2.1l10.5 5.3zm34.1 12.8h-4.2L55.2 33v-2.1l-10.6-5.3z"/>
</svg>