<svg xmlns="http://www.w3.org/2000/svg" fill-rule="evenodd" image-rendering="optimizeQuality" shape-rendering="geometricPrecision" text-rendering="geometricPrecision" viewBox="0 0 205.5 143.2">
  <path fill="#fff" fill-rule="nonzero" d="M11.7.4h182.1c6.2 0 11.3 5 11.3 11.3v119.8c0 6.2-5.1 11.3-11.3 11.3H11.6c-6.1 0-11.2-5-11.2-11.3V11.7C.4 5.5 5.4.4 11.7.4z"/>
  <path fill="#dc143c" fill-rule="nonzero" d="M.4 71.6h204.7v60c0 6.1-5.1 11.2-11.3 11.2H11.6c-6.1 0-11.2-5-11.2-11.3v-60z"/>
  <path fill="#CCC" fill-rule="nonzero" d="M11.7 0h182.1c3.2 0 6.1 1.3 8.2 3.4a11.6 11.6 0 0 1 3.5 8.3v119.8a11.6 11.6 0 0 1-11.7 11.7H11.6a12 12 0 0 1-8.2-3.4 11.6 11.6 0 0 1-3.4-8.3V11.7A11.6 11.6 0 0 1 11.7 0zm182.1.8H11.6C8.7.8 6 2 4 4a10.8 10.8 0 0 0-3.2 7.7v119.8a10.8 10.8 0 0 0 10.9 10.9h182.1a10.8 10.8 0 0 0 10.9-10.9V11.7c0-3-1.3-5.7-3.2-7.7a10.8 10.8 0 0 0-7.7-3.2z"/>
</svg>