<svg xmlns="http://www.w3.org/2000/svg" viewBox="0 0 122.9 122.9">
  <path d="M30 13.2a4 4 0 1 1 6.8-4l5 8.8a4 4 0 1 1-6.8 4l-5-8.8Zm31.4 13a35.2 35.2 0 1 1-24.9 10.3 35.1 35.1 0 0 1 25-10.3ZM58.5 4a4 4 0 1 1 7.8 0v10a4 4 0 1 1-7.9 0V4Zm29 6.1a4 4 0 1 1 6.9 3.9l-5 8.8a4 4 0 1 1-6.9-4l5-8.7ZM109.8 30a4 4 0 1 1 4 6.8l-8.8 5a4 4 0 1 1-4-6.7l8.8-5.1Zm9.2 28.3a4 4 0 1 1 0 8h-10a4 4 0 1 1 0-8Zm-6.1 29.2a4 4 0 1 1-4 6.8l-8.7-5a4 4 0 1 1 3.9-6.9l8.8 5Zm-20 22.2a4 4 0 1 1-6.7 4l-5.1-8.8a4 4 0 0 1 6.8-4l5 8.7Zm-28.2 9.2a4 4 0 1 1-8 0v-10a4 4 0 1 1 8 0v10Zm-29.2-6.1a4 4 0 0 1-6.8-4l5-8.7a4 4 0 1 1 6.9 3.9l-5.1 8.8Zm-22.2-20a4 4 0 1 1-4-6.7L18 81a4 4 0 1 1 4 6.8l-8.8 5ZM4 64.7a4 4 0 1 1 0-8h10a4 4 0 1 1 0 8Zm6.1-29.2a4 4 0 1 1 3.9-6.8l8.8 5a4 4 0 1 1-4 6.8l-8.7-5Z"/>
</svg>