<svg xmlns="http://www.w3.org/2000/svg" fill-rule="evenodd" image-rendering="optimizeQuality" shape-rendering="geometricPrecision" text-rendering="geometricPrecision" viewBox="0 0 512 512.4">
  <path fill-rule="nonzero" d="M216.8 156a19.8 19.8 0 1 1 39.7 0v120.7L339 313a19.8 19.8 0 0 1-16 36.3l-93.4-41.1a19.8 19.8 0 0 1-12.9-18.6V156zM9.3 153.4c-.6-1.8-.8-3.8-.8-5.9l.1-73.4a21.4 21.4 0 1 1 42.9 0V102a255 255 0 0 1 44-45.6 256.9 256.9 0 0 1 252-39.5 255.2 255.2 0 0 1 143 136.4 255.1 255.1 0 0 1 4.5 194.2 255.2 255.2 0 0 1-127 138.6 256.1 256.1 0 0 1-38.7 15.3c-5 1.5-10.1 1-14.7-1.4a19.3 19.3 0 0 1 3.6-35.5 224.7 224.7 0 0 0 34.5-13.7 216.8 216.8 0 0 0 106.3-117 217 217 0 0 0-4.4-166.4A216.8 216.8 0 0 0 333.8 53a217 217 0 0 0-166.5 4.4 217.8 217.8 0 0 0-47.7 29.1 216.1 216.1 0 0 0-37.7 39l17-1a21.5 21.5 0 0 1 2.4 43l-69.7 3.9c-11 .6-20.5-7.2-22.3-17.9zm237.6 359a19.3 19.3 0 0 0 1.4-38.6c-11.9-.4-23.4-1.7-35.2-4a19.3 19.3 0 1 0-7.5 37.8 256.4 256.4 0 0 0 41.3 4.7zm-119-34.3a19.3 19.3 0 0 0 19.5-33.2c-10.3-6-19.9-12.7-29-20.3a19.3 19.3 0 0 0-24.7 29.6 255.2 255.2 0 0 0 34.1 24zM39 392a19.3 19.3 0 0 0 33-20.5c-6.3-10-11.7-20.5-16.4-31.5A19.3 19.3 0 0 0 20 355a256.5 256.5 0 0 0 19 36.8zM.7 274.2a19.3 19.3 0 1 0 38.4-2.7c-.8-11.9-.7-23.6.3-35.4A19.3 19.3 0 1 0 1 232.6a257 257 0 0 0-.3 41.6z"/>
</svg>